<?xml version="1.0" encoding="UTF-8"?>
<svg version="1.1" xmlns="http://www.w3.org/2000/svg" width="500" height="156">
<path d="M0 0 C165 0 330 0 500 0 C500 51.48 500 102.96 500 156 C335 156 170 156 0 156 C0 104.52 0 53.04 0 0 Z " fill="#F3FEF6" transform="translate(0,0)"/>
<path d="M0 0 C2.32069155 3.48103732 2.7428844 6.0850856 3.5 10.1875 C4.28121445 14.34685856 5.06714249 18.47835985 6.1875 22.5625 C6.99345042 25.97229024 7.31244042 28.51852103 7 32 C5.49609375 34.16796875 5.49609375 34.16796875 3.4375 36.1875 C-14.23074913 55.0046511 -19.80556614 82.27671098 -24 107 C-24.99 107 -25.98 107 -27 107 C-27.17015625 105.97003906 -27.3403125 104.94007813 -27.515625 103.87890625 C-28.93936746 95.4571753 -30.54572485 87.14888265 -32.72949219 78.88696289 C-35.04671713 69.70727401 -33.91308712 63.44479074 -30.625 54.8125 C-30.26849365 53.85923828 -29.9119873 52.90597656 -29.54467773 51.92382812 C-22.4361967 33.3350049 -13.98929383 14.48409201 0 0 Z " fill="#22783E" transform="translate(164,27)"/>
<path d="M0 0 C0.99 0.495 0.99 0.495 2 1 C1.18208984 1.83917969 1.18208984 1.83917969 0.34765625 2.6953125 C-16.07665346 20.1584247 -30.92411904 47.17177283 -35 71 C-35.66 71 -36.32 71 -37 71 C-37.3403125 69.99582031 -37.680625 68.99164063 -38.03125 67.95703125 C-45.00095283 48.03274545 -57.22223048 29.85184635 -75 18 C-70.97260387 16.65753462 -68.41751886 17.98267073 -64.625 19.4375 C-63.91545166 19.7068335 -63.20590332 19.97616699 -62.47485352 20.25366211 C-52.81364778 24.0772813 -44.3099335 29.81586344 -36 36 C-35.731875 35.26136719 -35.46375 34.52273437 -35.1875 33.76171875 C-28.74787059 18.78534377 -13.07359466 8.71572977 0 0 Z " fill="#34B44E" transform="translate(163,17)"/>
<path d="M0 0 C-4.625 4.875 -4.625 4.875 -8 6 C-7.505 6.70125 -7.01 7.4025 -6.5 8.125 C-4.72078335 11.53516525 -4.38049577 13.20553658 -5 17 C-6.8344472 19.92152702 -8.86532181 22.4326609 -12 24 C-16.63554388 24.41204834 -19.30416098 23.87454146 -23 21 C-25.33287288 17.77841364 -25.17683757 14.89042645 -25 11 C-26.32 11 -27.64 11 -29 11 C-28.34 13.64 -27.68 16.28 -27 19 C-27.99 19.33 -28.98 19.66 -30 20 C-30.33 17.03 -30.66 14.06 -31 11 C-31.99 10.67 -32.98 10.34 -34 10 C-23.63807965 -0.76563153 -14.51463224 -1.33803871 0 0 Z " fill="#36B54F" transform="translate(139,20)"/>
<path d="M0 0 C0.33 4.29 0.66 8.58 1 13 C2.98 12.67 4.96 12.34 7 12 C9.375 13.5625 9.375 13.5625 11 16 C11.62488268 19.67118573 11.2303891 21.51827734 9.625 24.875 C7 27 7 27 -3 27 C-3 19.08 -3 11.16 -3 3 C-3.66 2.67 -4.32 2.34 -5 2 C-1.125 0 -1.125 0 0 0 Z " fill="#627064" transform="translate(229,82)"/>
<path d="M0 0 C0.99 0 1.98 0 3 0 C3 7.92 3 15.84 3 24 C3.66 24.33 4.32 24.66 5 25 C0.95157715 25.77112816 -2.88605754 26.45710472 -7 26 C-9.52231206 23.81399622 -9.94120588 22.34541543 -10.5 19.0625 C-10 16 -10 16 -7.875 13.0625 C-5 11 -5 11 -1.6875 11.1875 C-0.3571875 11.5896875 -0.3571875 11.5896875 1 12 C0.9278125 11.38511719 0.855625 10.77023438 0.78125 10.13671875 C0.6884375 9.32847656 0.595625 8.52023438 0.5 7.6875 C0.4071875 6.88699219 0.314375 6.08648437 0.21875 5.26171875 C0 3 0 3 0 0 Z " fill="#E6F1E8" transform="translate(304,83)"/>
<path d="M0 0 C5.28 0 10.56 0 16 0 C15.67 0.99 15.34 1.98 15 3 C12.36 2.67 9.72 2.34 7 2 C7 4.64 7 7.28 7 10 C9.31 10 11.62 10 14 10 C14.33 9.34 14.66 8.68 15 8 C15 10.31 15 12.62 15 15 C14.67 14.01 14.34 13.02 14 12 C11.69 12 9.38 12 7 12 C7 14.97 7 17.94 7 21 C9.97 21 12.94 21 16 21 C16.66 19.68 17.32 18.36 18 17 C18 18.98 18 20.96 18 23 C11.73 23 5.46 23 -1 23 C0.32 22.67 1.64 22.34 3 22 C3 15.07 3 8.14 3 1 C2.01 0.67 1.02 0.34 0 0 Z " fill="#5C6A5E" transform="translate(166,86)"/>
<path d="M0 0 C5.28 0 10.56 0 16 0 C16 1.65 16 3.3 16 5 C15.34 4.34 14.68 3.68 14 3 C11.34462628 2.43479997 8.70855287 2.26211802 6 2 C6 4.64 6 7.28 6 10 C10.64586892 9.51515724 10.64586892 9.51515724 15 8 C15 10.31 15 12.62 15 15 C14.34 14.34 13.68 13.68 13 13 C10.67724823 12.59952556 8.34260643 12.2602896 6 12 C6 14.97 6 17.94 6 21 C7.44375 20.855625 8.8875 20.71125 10.375 20.5625 C11.18710937 20.48128906 11.99921875 20.40007812 12.8359375 20.31640625 C15.04272805 20.10909886 15.04272805 20.10909886 17 19 C17 20.32 17 21.64 17 23 C10.73 23 4.46 23 -2 23 C-0.68 22.34 0.64 21.68 2 21 C2.05791844 17.87507749 2.09356746 14.75029234 2.125 11.625 C2.14175781 10.73554687 2.15851563 9.84609375 2.17578125 8.9296875 C2.18544922 7.65351562 2.18544922 7.65351562 2.1953125 6.3515625 C2.21102295 5.17327881 2.21102295 5.17327881 2.22705078 3.97119141 C2.17990127 1.765535 2.17990127 1.765535 0 0 Z " fill="#445447" transform="translate(272,86)"/>
<path d="M0 0 C0.33 0.66 0.66 1.32 1 2 C4.465 1.505 4.465 1.505 8 1 C10.28062828 4.42094242 10.21925007 5.68187222 10.125 9.6875 C10.10695312 10.68136719 10.08890625 11.67523438 10.0703125 12.69921875 C10.03550781 13.83810547 10.03550781 13.83810547 10 15 C10.66 15.33 11.32 15.66 12 16 C9.69 16 7.38 16 5 16 C5.66 15.67 6.32 15.34 7 15 C6.67 11.37 6.34 7.74 6 4 C4.02 4 2.04 4 0 4 C0 7.63 0 11.26 0 15 C0.66 15.33 1.32 15.66 2 16 C-0.31 16 -2.62 16 -5 16 C-4.34 15.67 -3.68 15.34 -3 15 C-3 11.04 -3 7.08 -3 3 C-3.66 2.67 -4.32 2.34 -5 2 C-2 0 -2 0 0 0 Z " fill="#59685C" transform="translate(193,93)"/>
<path d="M0 0 C0.99 0 1.98 0 3 0 C3.33 3.96 3.66 7.92 4 12 C5.65 12 7.3 12 9 12 C9.33 8.7 9.66 5.4 10 2 C9.34 1.67 8.68 1.34 8 1 C9.65 0.67 11.3 0.34 13 0 C13 4.29 13 8.58 13 13 C13.66 13.33 14.32 13.66 15 14 C10.28211812 14.77026643 5.78252409 15.19130096 1 15 C-0.87565835 13.12434165 -0.43313246 10.0216877 -0.625 7.5 C-0.72039062 6.3140625 -0.81578125 5.128125 -0.9140625 3.90625 C-0.94242187 2.9471875 -0.97078125 1.988125 -1 1 C-0.67 0.67 -0.34 0.34 0 0 Z " fill="#5F6D61" transform="translate(314,94)"/>
<path d="M0 0 C3 0.5 3 0.5 4.875 2.3125 C6 4.5 6 4.5 6 7.5 C2.7 7.5 -0.6 7.5 -4 7.5 C-3.34 9.15 -2.68 10.8 -2 12.5 C0.31 12.5 2.62 12.5 5 12.5 C5 13.16 5 13.82 5 14.5 C1.95699684 16.02150158 -0.654085 15.73899393 -4 15.5 C-6.47082138 11.79376793 -6.54464038 8.79660742 -6 4.5 C-4.45702531 1.07116735 -3.72541072 0.62090179 0 0 Z " fill="#606F62" transform="translate(261,93.5)"/>
<path d="M0 0 C2.375 -0.125 2.375 -0.125 5 0 C7 2 7 2 7.1953125 4.6015625 C7.17210937 5.59929687 7.14890625 6.59703125 7.125 7.625 C7.10695312 8.62789062 7.08890625 9.63078125 7.0703125 10.6640625 C7.03550781 11.82035156 7.03550781 11.82035156 7 13 C7.66 13.33 8.32 13.66 9 14 C5.32589215 15.17571451 1.83070817 15.07366746 -2 15 C-2.33 13.35 -2.66 11.7 -3 10 C-1.02 9.01 0.96 8.02 3 7 C3.25030977 4.58380177 3.25030977 4.58380177 3 2 C2.01 1.34 1.02 0.68 0 0 Z " fill="#647367" transform="translate(212,94)"/>
<path d="M0 0 C2.5625 0.1875 2.5625 0.1875 4.5625 2.1875 C4.828125 4.0625 4.828125 4.0625 4.8125 6.1875 C4.81765625 6.88875 4.8228125 7.59 4.828125 8.3125 C4.5625 10.1875 4.5625 10.1875 2.5625 12.1875 C0 12.375 0 12.375 -2.4375 12.1875 C-3.4375 11.1875 -3.4375 11.1875 -3.5703125 8.9375 C-3.56773437 8.03 -3.56515625 7.1225 -3.5625 6.1875 C-3.56507813 5.28 -3.56765625 4.3725 -3.5703125 3.4375 C-3.38424141 0.28523683 -3.15680703 0.24283131 0 0 Z " fill="#EEF8F0" transform="translate(232.4375,95.8125)"/>
<path d="M0 0 C0 8.58 0 17.16 0 26 C0.66 26.33 1.32 26.66 2 27 C-0.31 27 -2.62 27 -5 27 C-4.34 26.67 -3.68 26.34 -3 26 C-3 18.41 -3 10.82 -3 3 C-3.66 2.67 -4.32 2.34 -5 2 C-2 0 -2 0 0 0 Z " fill="#556458" transform="translate(249,82)"/>
<path d="M0 0 C0.99 0 1.98 0 3 0 C3 7.92 3 15.84 3 24 C3.66 24.33 4.32 24.66 5 25 C3.68 25.33 2.36 25.66 1 26 C0.67 22.04 0.34 18.08 0 14 C-2.97 13.505 -2.97 13.505 -6 13 C-5.67 12.34 -5.34 11.68 -5 11 C-2.03 11.495 -2.03 11.495 1 12 C0.9278125 11.38511719 0.855625 10.77023438 0.78125 10.13671875 C0.6884375 9.32847656 0.595625 8.52023438 0.5 7.6875 C0.4071875 6.88699219 0.314375 6.08648437 0.21875 5.26171875 C0 3 0 3 0 0 Z " fill="#465548" transform="translate(304,83)"/>
<path d="M0 0 C1.4540625 0.0309375 1.4540625 0.0309375 2.9375 0.0625 C3.2675 2.3725 3.5975 4.6825 3.9375 7.0625 C1.0625 7.6875 1.0625 7.6875 -2.0625 8.0625 C-4.0625 6.0625 -4.0625 6.0625 -4.25 3.5 C-3.97031732 -0.13587487 -3.72751987 0.07607183 0 0 Z " fill="#A2AFA4" transform="translate(253.0625,116.9375)"/>
<path d="M0 0 C2.375 -0.125 2.375 -0.125 5 0 C7 2 7 2 7.125 5.625 C7.08375 6.73875 7.0425 7.8525 7 9 C6.34 9 5.68 9 5 9 C5 8.34 5 7.68 5 7 C4.01 7 3.02 7 2 7 C2 7.66 2 8.32 2 9 C1.34 9 0.68 9 0 9 C0 6.03 0 3.06 0 0 Z " fill="#869489" transform="translate(374,116)"/>
<path d="M0 0 C2.97 0.495 2.97 0.495 6 1 C6.04241723 3.33294775 6.04092937 5.66702567 6 8 C5 9 5 9 2.4375 9.0625 C1.633125 9.041875 0.82875 9.02125 0 9 C0 6.03 0 3.06 0 0 Z " fill="#707E73" transform="translate(205,116)"/>
<path d="M0 0 C1.98 0 3.96 0 6 0 C6.68707555 2.49064888 7 4.37886292 7 7 C4 7 4 7 2 6 C2 6.66 2 7.32 2 8 C1.34 8 0.68 8 0 8 C0 5.36 0 2.72 0 0 Z " fill="#7F8D82" transform="translate(413,117)"/>
<path d="M0 0 C1.98 0 3.96 0 6 0 C6 2.64 6 5.28 6 8 C3.525 7.01 3.525 7.01 1 6 C0.67 6.66 0.34 7.32 0 8 C0 5.36 0 2.72 0 0 Z " fill="#7F8D82" transform="translate(307,117)"/>
<path d="M0 0 C0.66 0 1.32 0 2 0 C1.95359375 0.68707031 1.9071875 1.37414062 1.859375 2.08203125 C1.82328125 2.98308594 1.7871875 3.88414063 1.75 4.8125 C1.70359375 5.70582031 1.6571875 6.59914063 1.609375 7.51953125 C1.76018967 10.16674709 1.76018967 10.16674709 4.015625 11.82421875 C4.67046875 12.21222656 5.3253125 12.60023437 6 13 C3.6875 13.25 3.6875 13.25 1 13 C-1.54823595 10.71537467 -1.96426038 9.35024831 -2.3125 5.9375 C-2 3 -2 3 0 0 Z " fill="#526155" transform="translate(296,96)"/>
<path d="M0 0 C0.99 0 1.98 0 3 0 C6 5.75 6 5.75 6 8 C5.34 8 4.68 8 4 8 C4 7.34 4 6.68 4 6 C2.35 6 0.7 6 -1 6 C-1 6.66 -1 7.32 -1 8 C-1.66 7.67 -2.32 7.34 -3 7 C-2.01 4.69 -1.02 2.38 0 0 Z " fill="#6E7C71" transform="translate(363,117)"/>
<path d="M0 0 C0.99 0.33 1.98 0.66 3 1 C4.1875 4.5625 4.1875 4.5625 5 8 C4.34 8 3.68 8 3 8 C3 7.34 3 6.68 3 6 C1.02 6.66 -0.96 7.32 -3 8 C-1.125 1.125 -1.125 1.125 0 0 Z " fill="#6D7B6F" transform="translate(194,117)"/>
<path d="M0 0 C3.875 1.75 3.875 1.75 5 4 C5.66 2.68 6.32 1.36 7 0 C7 2.64 7 5.28 7 8 C5.68 7.01 4.36 6.02 3 5 C2.67 5.99 2.34 6.98 2 8 C1.34 8 0.68 8 0 8 C0 5.36 0 2.72 0 0 Z " fill="#58675B" transform="translate(387,117)"/>
<path d="M0 0 C1.98 0 3.96 0 6 0 C4.68 0.33 3.36 0.66 2 1 C2 1.66 2 2.32 2 3 C3.32 3 4.64 3 6 3 C6 3.66 6 4.32 6 5 C4.68 5 3.36 5 2 5 C2 5.66 2 6.32 2 7 C3.32 7.33 4.64 7.66 6 8 C4.02 8 2.04 8 0 8 C0 5.36 0 2.72 0 0 Z " fill="#627165" transform="translate(349,117)"/>
<path d="M0 0 C5.28 0 10.56 0 16 0 C16 1.65 16 3.3 16 5 C15.34 4.34 14.68 3.68 14 3 C11.17326263 2.61116804 11.17326263 2.61116804 8 2.5 C2.22222222 2.22222222 2.22222222 2.22222222 0 0 Z " fill="#5E6D61" transform="translate(272,86)"/>
<path d="M0 0 C3.3 0 6.6 0 10 0 C9.67 0.66 9.34 1.32 9 2 C7.68 1.67 6.36 1.34 5 1 C5.66 3.64 6.32 6.28 7 9 C6.01 9.33 5.02 9.66 4 10 C3.67 7.03 3.34 4.06 3 1 C2.01 0.67 1.02 0.34 0 0 Z " fill="#6CCA7E" transform="translate(105,30)"/>
<path d="M0 0 C3 1 3 1 5 4 C5.66 2.68 6.32 1.36 7 0 C7 2.64 7 5.28 7 8 C6.34 8 5.68 8 5 8 C3.375 6 3.375 6 2 4 C1.34 5.32 0.68 6.64 0 8 C0 5.36 0 2.72 0 0 Z " fill="#48574A" transform="translate(236,117)"/>
<path d="M0 0 C3 1 3 1 5 4 C5.66 2.68 6.32 1.36 7 0 C7 2.64 7 5.28 7 8 C6.34 8 5.68 8 5 8 C3.375 6 3.375 6 2 4 C1.34 5.32 0.68 6.64 0 8 C0 5.36 0 2.72 0 0 Z " fill="#48574A" transform="translate(178,117)"/>
<path d="M0 0 C0.33 0 0.66 0 1 0 C1.02578125 0.67546875 1.0515625 1.3509375 1.078125 2.046875 C1.34321728 7.75763932 1.34321728 7.75763932 4.0625 12.625 C4.701875 13.07875 5.34125 13.5325 6 14 C4.02 14 2.04 14 0 14 C0 9.38 0 4.76 0 0 Z " fill="#404F43" transform="translate(315,95)"/>
<path d="M0 0 C0.5625 1.9375 0.5625 1.9375 1 4 C0.67 4.33 0.34 4.66 0 5 C-0.23192865 6.51469448 -0.41215238 8.03754562 -0.5625 9.5625 C-0.64628906 10.38878906 -0.73007813 11.21507813 -0.81640625 12.06640625 C-0.87699219 12.70449219 -0.93757812 13.34257813 -1 14 C-1.33 14 -1.66 14 -2 14 C-2.07347656 12.95199219 -2.07347656 12.95199219 -2.1484375 11.8828125 C-2.26058594 10.51769531 -2.26058594 10.51769531 -2.375 9.125 C-2.44460937 8.22007813 -2.51421875 7.31515625 -2.5859375 6.3828125 C-2.79568132 3.82058097 -2.79568132 3.82058097 -5 2 C-2 0 -2 0 0 0 Z " fill="#465649" transform="translate(193,93)"/>
<path d="M0 0 C0.33 0 0.66 0 1 0 C1 2.31 1 4.62 1 7 C0.34 6.34 -0.32 5.68 -1 5 C-3.32275177 4.59952556 -5.65739357 4.2602896 -8 4 C-8 3.34 -8 2.68 -8 2 C-6.865625 1.855625 -5.73125 1.71125 -4.5625 1.5625 C-1.19222799 1.38828522 -1.19222799 1.38828522 0 0 Z " fill="#67766A" transform="translate(286,94)"/>
<path d="M0 0 C0.33 0 0.66 0 1 0 C1.66 3.3 2.32 6.6 3 10 C4.65 10.33 6.3 10.66 8 11 C8 11.33 8 11.66 8 12 C5.66705225 12.04241723 3.33297433 12.04092937 1 12 C0 11 0 11 -0.09765625 8.49609375 C-0.08605469 7.48675781 -0.07445312 6.47742188 -0.0625 5.4375 C-0.05347656 4.42558594 -0.04445312 3.41367188 -0.03515625 2.37109375 C-0.02355469 1.58863281 -0.01195312 0.80617188 0 0 Z " fill="#3C4C3F" transform="translate(227,97)"/>
<path d="M0 0 C3.3 0 6.6 0 10 0 C10 0.66 10 1.32 10 2 C7.04335481 3.4783226 4.25770263 3.06032783 1 3 C0.67 2.01 0.34 1.02 0 0 Z " fill="#606E62" transform="translate(256,106)"/>
<path d="M0 0 C2.125 0.9375 2.125 0.9375 4 2 C4 2.66 4 3.32 4 4 C1.69 4 -0.62 4 -3 4 C-2.67 3.01 -2.34 2.02 -2 1 C-1.34 0.67 -0.68 0.34 0 0 Z " fill="#EBF5ED" transform="translate(260,95)"/>
<path d="M0 0 C1.66611905 -0.042721 3.33382885 -0.04063832 5 0 C6 1 6 1 6.0625 4.5625 C6.041875 5.696875 6.02125 6.83125 6 8 C5.34 8 4.68 8 4 8 C3.896875 7.05125 3.79375 6.1025 3.6875 5.125 C3.31460705 1.70892499 3.31460705 1.70892499 0 0 Z " fill="#4A594D" transform="translate(212,94)"/>
<path d="M0 0 C2.97 0.495 2.97 0.495 6 1 C6 1.99 6 2.98 6 4 C4.35 4 2.7 4 1 4 C0.67 2.68 0.34 1.36 0 0 Z " fill="#9DAA9F" transform="translate(205,116)"/>
<path d="M0 0 C0 1.32 0 2.64 0 4 C-1.32 4.33 -2.64 4.66 -4 5 C-4 3.68 -4 2.36 -4 1 C-2 0 -2 0 0 0 Z " fill="#E4EFE6" transform="translate(216,103)"/>
<path d="M0 0 C3.125 0.375 3.125 0.375 6 1 C6.33 1.99 6.66 2.98 7 4 C2.545 3.01 2.545 3.01 -2 2 C-1.34 1.34 -0.68 0.68 0 0 Z " fill="#47574A" transform="translate(232,94)"/>
<path d="M0 0 C0 4.29 0 8.58 0 13 C-0.33 13 -0.66 13 -1 13 C-1.07347656 11.95199219 -1.07347656 11.95199219 -1.1484375 10.8828125 C-1.26058594 9.51769531 -1.26058594 9.51769531 -1.375 8.125 C-1.44460937 7.22007813 -1.51421875 6.31515625 -1.5859375 5.3828125 C-1.79568132 2.82058097 -1.79568132 2.82058097 -4 1 C-2 0 -2 0 0 0 Z " fill="#3E4E41" transform="translate(228,83)"/>
<path d="M0 0 C0.99 0.33 1.98 0.66 3 1 C2.67 1.99 2.34 2.98 2 4 C2.66 4.66 3.32 5.32 4 6 C2.35 5.67 0.7 5.34 -1 5 C-0.67 3.35 -0.34 1.7 0 0 Z " fill="#4A594D" transform="translate(210,103)"/>
</svg>
